<svg width="53" height="60" viewBox="0 0 53 60" fill="none" xmlns="http://www.w3.org/2000/svg">
<path d="M51.1935 23.9628C50.7992 10.6825 39.8741 0 26.4999 0C13.1257 0 2.20059 10.6825 1.80612 23.9628L0.0292969 25.7396V37.7898L1.794 39.5545V47.7647C1.794 52.5652 5.69941 56.4706 10.4999 56.4706H12.6858C13.4142 58.5246 15.3758 60 17.6764 60H21.2058C23.5079 60 25.4705 58.5225 26.1978 56.4664C26.2986 56.4681 26.3997 56.4706 26.4999 56.4706C35.022 56.4706 42.1526 50.3981 43.7921 42.3529H48.4073L52.9705 37.7898V25.7396L51.1935 23.9628ZM26.4999 3.52941C36.9741 3.52941 45.6953 11.174 47.3806 21.1765H43.7921C42.1526 13.1313 35.022 7.05882 26.4999 7.05882C17.9778 7.05882 10.8472 13.1313 9.20765 21.1765H5.61918C7.30447 11.174 16.0257 3.52941 26.4999 3.52941ZM40.1708 21.1765C34.4662 21.1594 30.4368 21.5068 27.1147 16.6506L25.5015 14.2926L24.1152 16.7907C22.0952 20.4306 19.3748 21.1765 15.9117 21.1765H12.8289C14.4001 15.0944 19.9337 10.5882 26.4999 10.5882C33.0661 10.5882 38.5997 15.0944 40.1708 21.1765ZM8.85283 38.8235H6.05436L3.55871 36.3279V27.2015L6.05436 24.7059H8.85283V38.8235ZM5.32341 47.7647V42.3529H9.20424C9.86859 45.6441 11.4581 48.6652 13.8129 51.0916C13.3193 51.6191 12.9321 52.2467 12.6858 52.9412H10.4999C7.64553 52.9412 5.32341 50.6191 5.32341 47.7647ZM21.2058 56.4706H17.6764C16.7032 56.4706 15.9117 55.6791 15.9117 54.7059C15.9117 53.7328 16.7032 52.9412 17.6764 52.9412H21.2058C22.1788 52.9412 22.9705 53.7328 22.9705 54.7059C22.9705 55.6791 22.1788 56.4706 21.2058 56.4706ZM40.6175 38.8235C40.6175 46.608 34.2844 52.9412 26.4999 52.9412C26.3987 52.9412 26.2967 52.9392 26.1948 52.9368C25.4652 50.8851 23.5047 49.4118 21.2058 49.4118C17.5822 49.4198 17.64 49.3936 17.1884 49.4352C14.1246 46.7498 12.3822 42.9248 12.3822 38.8235V24.7059H15.9117C19.0348 24.7059 22.8384 24.1909 25.7826 20.6076C29.6673 24.6786 34.4146 24.7059 38.6761 24.7059H40.6175V38.8235ZM49.4411 36.3279L46.9454 38.8235H44.1469V24.7059H46.9454L49.4411 27.2015V36.3279Z" fill="#041E42"/>
</svg>
