<svg width="53" height="60" viewBox="0 0 53 60" fill="none" xmlns="http://www.w3.org/2000/svg">
<path d="M45.8547 3.51562C44.5744 3.51562 43.3741 3.86121 42.339 4.46156V1.75781C42.339 0.787031 41.552 0 40.5812 0H12.4562C11.4853 0 10.6983 0.787031 10.6983 1.75781V4.48301C9.65496 3.8693 8.44102 3.51562 7.14551 3.51562C3.26848 3.51562 0.114258 6.66984 0.114258 10.5469C0.114258 13.5041 0.990586 16.3615 2.64844 18.8102C5.47078 22.9789 8.95113 24.0607 11.831 25.2127C13.4916 29.348 16.8496 32.6252 21.0384 34.1769L19.7422 42.4219H19.4875C16.5797 42.4219 14.214 44.7875 14.214 47.6953V56.4844H12.4562C11.4854 56.4844 10.6984 57.2714 10.6984 58.2422C10.6984 59.213 11.4854 60 12.4562 60H40.5812C41.552 60 42.339 59.213 42.339 58.2422C42.339 57.2714 41.552 56.4844 40.5812 56.4844H38.8234V47.6953C38.8234 44.7875 36.4577 42.4219 33.55 42.4219H33.2952L31.9991 34.177C36.1941 32.623 39.5558 29.3386 41.2139 25.1948C43.9344 24.1066 47.5005 23.0217 50.3518 18.8102C52.0097 16.3615 52.886 13.504 52.886 10.5469C52.8859 6.66984 49.7317 3.51562 45.8547 3.51562ZM10.6853 20.968C6.39926 19.2536 3.62988 15.1631 3.62988 10.5469C3.62988 8.60836 5.20699 7.03125 7.14551 7.03125C9.08402 7.03125 10.6611 8.60836 10.6611 10.5469C10.6611 10.6705 10.6741 10.791 10.6984 10.9073V19.3359C10.6984 19.9009 10.7288 20.4588 10.7869 21.0087L10.6853 20.968ZM35.3078 56.4844H17.7296V52.9688H35.3078V56.4844ZM33.55 45.9375C34.5192 45.9375 35.3078 46.7261 35.3078 47.6953V49.4531H17.7296V47.6953C17.7296 46.7261 18.5182 45.9375 19.4875 45.9375C20.4411 45.9375 31.3134 45.9375 33.55 45.9375ZM23.301 42.4219L24.4642 35.023C25.1368 35.1107 25.8225 35.1562 26.5187 35.1562C27.2149 35.1562 27.9006 35.1105 28.5732 35.023L29.7364 42.4219H23.301ZM38.8234 19.3359C38.8234 26.1207 33.3035 31.6406 26.5187 31.6406C19.7339 31.6406 14.214 26.1207 14.214 19.3359V10.5469H38.8234V19.3359ZM38.8234 7.03125H14.214V3.51562H38.8234V7.03125ZM42.3148 20.968L42.2523 20.993C42.3093 20.4483 42.3389 19.8955 42.3389 19.3359V10.5469C42.339 8.60836 43.9161 7.03125 45.8547 7.03125C47.7932 7.03125 49.3703 8.60836 49.3703 10.5469C49.3703 15.1631 46.6009 19.2537 42.3148 20.968Z" fill="#041E42"/>
</svg>
