<svg width="61" height="56" viewBox="0 0 61 56" fill="none" xmlns="http://www.w3.org/2000/svg">
<path d="M55.5149 29.1019V1.77964C55.5149 0.804893 54.7247 0.0146484 53.7499 0.0146484H6.4621C5.48736 0.0146484 4.69711 0.804893 4.69711 1.77964V31.28C3.84568 31.404 3.01331 31.7346 2.27696 32.2812C-0.0443563 33.9273 -0.593386 37.6109 1.35104 39.8827L9.30091 49.5204C14.2219 55.2798 19.4495 55.9854 27.2208 55.9854C33.8898 55.9854 36.8713 56.0148 42.6835 54.6905L48.3429 53.3369C49.2606 54.6184 50.7175 55.4485 52.3552 55.4485H55.1432C57.9133 55.4485 60.167 53.0744 60.167 50.1561V34.3784C60.1671 31.592 58.1119 29.3031 55.5149 29.1019ZM47.5817 32.7326L45.23 31.5382C41.3634 29.5865 36.8929 29.5142 32.9652 31.3403C31.8936 31.7618 29.5564 33.1759 28.3441 33.1286H20.1837C17.4769 33.1286 15.2747 35.3307 15.2747 38.0376V39.3247C15.2595 39.3087 15.2436 39.2936 15.2287 39.2773L9.40128 32.9519C9.04864 32.5692 8.65245 32.2489 8.22721 31.9919V14.481H22.6711V20.951C22.6711 21.9257 23.4613 22.7159 24.4361 22.7159H35.5732C36.548 22.7159 37.3382 21.9257 37.3382 20.951V14.481H51.9851V29.1018C49.9229 29.2611 48.2033 30.7364 47.5817 32.7326ZM26.2009 14.481H33.8081V19.186H26.2009V14.481ZM51.985 10.951H37.3382V3.54463H51.9851V10.951H51.985ZM33.8083 3.54463V10.9511H26.201V3.54463H33.8083ZM22.6709 3.54463V10.9511H8.22709V3.54463H22.6709ZM41.8643 51.2568C36.4952 52.4865 33.2616 52.4367 27.2842 52.4367C19.9889 52.4367 16.4639 52.3188 12.0242 47.274L4.07431 37.6363C2.6915 35.8357 5.19613 33.7101 6.8051 35.3435L12.6325 41.669C14.1726 43.2941 16.1107 44.1885 18.4994 44.2411H34.6559C35.6307 44.2411 36.4209 43.4508 36.4209 42.4761C36.4209 41.5013 35.6307 40.7111 34.6559 40.7111H18.8046V38.0373C18.8046 37.277 19.4231 36.6583 20.1836 36.6583H28.344C30.1824 36.79 32.8359 35.2549 34.4533 34.541C37.395 33.1733 40.7433 33.2274 43.6354 34.6872L47.3317 36.5646V49.9489L41.8643 51.2568ZM56.6371 50.156C56.6371 51.1278 55.967 51.9184 55.1433 51.9184H52.3554C51.5317 51.9184 50.8617 51.1278 50.8617 50.156V34.3784C50.8617 33.4066 51.5318 32.6159 52.3554 32.6159H55.1433C55.967 32.6159 56.6371 33.4065 56.6371 34.3784V50.156Z" fill="#041E42"/>
</svg>
