<svg width="30" height="30" viewBox="0 0 30 30" fill="none" xmlns="http://www.w3.org/2000/svg">
<path d="M12.6904 5.09194H5.05441C4.24433 5.09194 3.46743 5.41374 2.89462 5.98656C2.3218 6.55937 2 7.33627 2 8.14635V24.9456C2 25.7557 2.3218 26.5326 2.89462 27.1054C3.46743 27.6782 4.24433 28 5.05441 28H21.8536C22.6637 28 23.4406 27.6782 24.0134 27.1054C24.5863 26.5326 24.9081 25.7557 24.9081 24.9456V17.3096M22.7486 2.93247C23.0304 2.64075 23.3674 2.40806 23.74 2.24798C24.1127 2.0879 24.5135 2.00364 24.9191 2.00012C25.3246 1.99659 25.7268 2.07387 26.1022 2.22745C26.4776 2.38103 26.8186 2.60783 27.1054 2.89462C27.3922 3.1814 27.619 3.52243 27.7725 3.89781C27.9261 4.27318 28.0034 4.67539 27.9999 5.08095C27.9964 5.48651 27.9121 5.88731 27.752 6.25996C27.5919 6.63261 27.3592 6.96965 27.0675 7.25141L13.955 20.364H9.63602V16.045L22.7486 2.93247Z" stroke="#041E42" stroke-width="2.5" stroke-linecap="round" stroke-linejoin="round"/>
</svg>
