<svg width="61" height="60" viewBox="0 0 61 60" fill="none" xmlns="http://www.w3.org/2000/svg">
<path d="M57.619 21.2612C56.8273 18.8097 57.1648 15.1296 55.107 12.2882C53.033 9.42438 49.4259 8.61039 47.389 7.1207C45.3736 5.64672 43.4986 2.43918 40.1085 1.33293C36.814 0.257852 33.4451 1.71672 30.833 1.71672C28.2213 1.71672 24.8526 0.2575 21.5575 1.33281C18.168 2.43883 16.2914 5.64707 14.2773 7.12035C12.2427 8.60828 8.63289 9.42449 6.55926 12.2879C4.5032 15.127 4.8373 18.8154 4.04699 21.2611C3.29488 23.5888 0.833008 26.3825 0.833008 30.0003C0.833008 33.6203 3.29207 36.4032 4.04699 38.7393C4.83871 41.1909 4.50121 44.8709 6.55902 47.7123C8.63289 50.5763 12.2399 51.3902 14.277 52.88C16.292 54.3537 18.1674 57.5615 21.5575 58.6676C24.8498 59.742 28.2239 58.2838 30.833 58.2838C33.4384 58.2838 36.8205 59.7405 40.1085 58.6677C43.4982 57.5617 45.3735 54.3542 47.3887 52.8802C49.4233 51.3923 53.0331 50.5761 55.1068 47.7127C57.1629 44.8735 56.8286 41.1854 57.619 38.7394C58.3711 36.4116 60.833 33.618 60.833 30.0003C60.833 26.3805 58.3745 23.5984 57.619 21.2612ZM53.1587 37.298C52.2359 40.1545 52.4777 43.3512 51.3105 44.963C50.1276 46.5962 47.0199 47.3423 44.6219 49.0963C42.2501 50.8308 40.5878 53.5804 38.6545 54.2112C36.8254 54.8082 33.8446 53.5961 30.8331 53.5961C27.7996 53.5961 24.8495 54.8107 23.0117 54.2112C21.0786 53.5804 19.4186 50.8327 17.0443 49.0962C14.6604 47.3528 11.535 46.5914 10.3555 44.9628C9.19211 43.3564 9.42473 40.1375 8.5075 37.2981C7.60844 34.5162 5.52051 32.1074 5.52051 30.0003C5.52051 27.891 7.60656 25.4905 8.50727 22.7025C9.43012 19.8462 9.18836 16.6492 10.3555 15.0375C11.5377 13.4054 14.6478 12.6569 17.0443 10.9042C19.4235 9.1641 21.0754 6.42109 23.0114 5.78934C24.839 5.19309 27.8295 6.40445 30.8329 6.40445C33.8719 6.40445 36.8146 5.18898 38.6543 5.78934C40.5872 6.42004 42.2486 9.16879 44.6219 10.9043C47.0054 12.6477 50.131 13.4091 51.3105 15.0377C52.4741 16.6444 52.2402 19.86 53.1585 22.7023V22.7024C54.0576 25.4843 56.1455 27.8931 56.1455 30.0003C56.1455 32.1095 54.0595 34.51 53.1587 37.298ZM41.631 22.4774C42.5464 23.3928 42.5464 24.8767 41.631 25.792L29.8998 37.5231C28.9845 38.4385 27.5004 38.4384 26.5852 37.5231L20.0351 30.973C19.1198 30.0577 19.1196 28.5737 20.035 27.6585C20.9504 26.7433 22.4345 26.7432 23.3495 27.6585L28.2425 32.5513L38.3162 22.4775C39.2316 21.5622 40.7157 21.5622 41.631 22.4774Z" fill="#041E42"/>
</svg>
